<svg width="194" height="188" viewBox="0 0 194 188" fill="none" xmlns="http://www.w3.org/2000/svg">
<path d="M192.5 94C192.5 145.042 149.788 186.5 97 186.5C44.212 186.5 1.5 145.042 1.5 94C1.5 42.9577 44.212 1.5 97 1.5C149.788 1.5 192.5 42.9577 192.5 94Z" stroke="#FFFDFD" stroke-width="3"/>
<path d="M154.488 44.888V149H137.424V81.752C137.424 79.064 137.568 76.16 137.856 73.04L106.392 132.152C104.904 134.984 102.624 136.4 99.552 136.4H96.816C93.744 136.4 91.464 134.984 89.976 132.152L58.152 72.824C58.296 74.408 58.416 75.968 58.512 77.504C58.608 79.04 58.656 80.456 58.656 81.752V149H41.592V44.888H56.208C57.072 44.888 57.816 44.912 58.44 44.96C59.064 45.008 59.616 45.128 60.096 45.32C60.624 45.512 61.08 45.824 61.464 46.256C61.896 46.688 62.304 47.264 62.688 47.984L93.864 105.8C94.68 107.336 95.424 108.92 96.096 110.552C96.816 112.184 97.512 113.864 98.184 115.592C98.856 113.816 99.552 112.112 100.272 110.48C100.992 108.8 101.76 107.192 102.576 105.656L133.32 47.984C133.704 47.264 134.112 46.688 134.544 46.256C134.976 45.824 135.432 45.512 135.912 45.32C136.44 45.128 137.016 45.008 137.64 44.96C138.264 44.912 139.008 44.888 139.872 44.888H154.488Z" fill="white"/>
</svg>
